{
  "accessors": [
    {
      "bufferView": 2,
      "componentType": 5126,
      "count": 13989,
      "max": [
        0.53205400705337524,
        0.23216700553894043,
        1.6342699527740479
      ],
      "min": [
        -0.53205400705337524,
        -0.1370919942855835,
        0.18541799485683441
      ],
      "type": "VEC3"
    },
    {
      "bufferView": 2,
      "byteOffset": 167868,
      "componentType": 5126,
      "count": 13989,
      "max": [
        0.99996393918991089,
        0.99999278783798218,
        0.99998074769973755
      ],
      "min": [
        -0.99996393918991089,
        -1,
        -0.9999774694442749
      ],
      "type": "VEC3"
    },
    {
      "bufferView": 3,
      "componentType": 5126,
      "count": 13989,
      "max": [
        1,
        1,
        0.99995476007461548,
        1
      ],
      "min": [
        -1,
        -1,
        -0.99998694658279419,
        -1
      ],
      "type": "VEC4"
    },
    {
      "bufferView": 1,
      "componentType": 5126,
      "count": 13989,
      "max": [
        1.9951169490814209,
        0.99578100442886353
      ],
      "min": [
        -3.0999999580672011e-05,
        0.0014649999793618917
      ],
      "type": "VEC2"
    },
    {
      "bufferView": 0,
      "componentType": 5125,
      "count": 36732,
      "max": [
        13988
      ],
      "min": [
        0
      ],
      "type": "SCALAR"
    },
    {
      "bufferView": 2,
      "byteOffset": 335736,
      "componentType": 5126,
      "count": 7754,
      "max": [
        0.62463897466659546,
        0.18585200607776642,
        1.8248399496078491
      ],
      "min": [
        -0.62449002265930176,
        -0.17125900089740753,
        0.0099069997668266296
      ],
      "type": "VEC3"
    },
    {
      "bufferView": 2,
      "byteOffset": 428784,
      "componentType": 5126,
      "count": 7754,
      "max": [
        0.99985730648040771,
        0.9999232292175293,
        0.99984771013259888
      ],
      "min": [
        -0.99985706806182861,
        -0.99999970197677612,
        -0.99999058246612549
      ],
      "type": "VEC3"
    },
    {
      "bufferView": 3,
      "byteOffset": 223824,
      "componentType": 5126,
      "count": 7754,
      "max": [
        1,
        0.99981749057769775,
        0.99990147352218628,
        1
      ],
      "min": [
        -1,
        -0.99998199939727783,
        -0.99852168560028076,
        -1
      ],
      "type": "VEC4"
    },
    {
      "bufferView": 1,
      "byteOffset": 111912,
      "componentType": 5126,
      "count": 7754,
      "max": [
        0.98144501447677612,
        0.97936999797821045
      ],
      "min": [
        0.027312999591231346,
        0.018066000193357468
      ],
      "type": "VEC2"
    },
    {
      "bufferView": 0,
      "byteOffset": 146928,
      "componentType": 5125,
      "count": 38280,
      "max": [
        7753
      ],
      "min": [
        0
      ],
      "type": "SCALAR"
    }
  ],
  "asset": {
    "extras": {
      "author": "julianu2be (https://sketchfab.com/julianu2be)",
      "license": "CC-BY-4.0 (http://creativecommons.org/licenses/by/4.0/)",
      "source": "https://sketchfab.com/models/48f5b7c85bc540edbf0e51afd52fe1d8",
      "title": "Deadpool - Deadpool Default"
    },
    "generator": "Sketchfab-3.37.2",
    "version": "2.0"
  },
  "bufferViews": [
    {
      "buffer": 0,
      "byteLength": 300048,
      "byteOffset": 0,
      "name": "floatBufferViews",
      "target": 34963
    },
    {
      "buffer": 0,
      "byteLength": 173944,
      "byteOffset": 300048,
      "byteStride": 8,
      "name": "floatBufferViews",
      "target": 34962
    },
    {
      "buffer": 0,
      "byteLength": 521832,
      "byteOffset": 473992,
      "byteStride": 12,
      "name": "floatBufferViews",
      "target": 34962
    },
    {
      "buffer": 0,
      "byteLength": 347888,
      "byteOffset": 995824,
      "byteStride": 16,
      "name": "floatBufferViews",
      "target": 34962
    }
  ],
  "buffers": [
    {
      "byteLength": 1343712,
      "uri": "scene.bin"
    }
  ],
  "images": [
    {
      "uri": "textures/DEA_PC_DEA_WWI_DEF_A_baseColor.png"
    },
    {
      "uri": "textures/DEA_PC_DEA_WWI_DEF_B_baseColor.png"
    }
  ],
  "materials": [
    {
      "doubleSided": true,
      "emissiveFactor": [
        0,
        0,
        0
      ],
      "name": "DEA_PC_DEA_WWI_DEF_A",
      "pbrMetallicRoughness": {
        "baseColorFactor": [
          1,
          1,
          1,
          1
        ],
        "baseColorTexture": {
          "index": 0,
          "texCoord": 0
        },
        "metallicFactor": 0,
        "roughnessFactor": 0.96869830840000004
      }
    },
    {
      "doubleSided": true,
      "emissiveFactor": [
        0,
        0,
        0
      ],
      "name": "DEA_PC_DEA_WWI_DEF_B",
      "pbrMetallicRoughness": {
        "baseColorFactor": [
          1,
          1,
          1,
          1
        ],
        "baseColorTexture": {
          "index": 1,
          "texCoord": 0
        },
        "metallicFactor": 0,
        "roughnessFactor": 1
      }
    }
  ],
  "meshes": [
    {
      "primitives": [
        {
          "attributes": {
            "NORMAL": 1,
            "POSITION": 0,
            "TANGENT": 2,
            "TEXCOORD_0": 3
          },
          "indices": 4,
          "material": 0,
          "mode": 4
        }
      ]
    },
    {
      "primitives": [
        {
          "attributes": {
            "NORMAL": 6,
            "POSITION": 5,
            "TANGENT": 7,
            "TEXCOORD_0": 8
          },
          "indices": 9,
          "material": 1,
          "mode": 4
        }
      ]
    }
  ],
  "nodes": [
    {
      "children": [
        1
      ],
      "name": "RootNode (gltf orientation matrix)",
      "rotation": [
        -0.70710678118654746,
        -0,
        -0,
        0.70710678118654757
      ]
    },
    {
      "children": [
        2
      ],
      "name": "RootNode (model correction matrix)"
    },
    {
      "children": [
        3,
        4
      ],
      "name": "DEA_PC_DEADPOOL_Wade_Wilson_Deadpool_Default.obj.cleaner.materialmerger.gles"
    },
    {
      "mesh": 0,
      "name": ""
    },
    {
      "mesh": 1,
      "name": ""
    }
  ],
  "samplers": [
    {
      "magFilter": 9729,
      "minFilter": 9987,
      "wrapS": 10497,
      "wrapT": 10497
    }
  ],
  "scene": 0,
  "scenes": [
    {
      "name": "OSG_Scene",
      "nodes": [
        0
      ]
    }
  ],
  "textures": [
    {
      "sampler": 0,
      "source": 0
    },
    {
      "sampler": 0,
      "source": 1
    }
  ]
}

