{
  "accessors": [
    {
      "bufferView": 1,
      "componentType": 5126,
      "count": 3370,
      "max": [
        14.598154067993164,
        14.175494194030762,
        -32.407402038574219
      ],
      "min": [
        -14.598391532897949,
        -10.253810882568359,
        -41.861225128173828
      ],
      "type": "VEC3"
    },
    {
      "bufferView": 1,
      "byteOffset": 40440,
      "componentType": 5126,
      "count": 3370,
      "max": [
        0.99997448921203613,
        0.99969673156738281,
        0.99976265430450439
      ],
      "min": [
        -0.99996638298034668,
        -0.99972623586654663,
        -0.99955612421035767
      ],
      "type": "VEC3"
    },
    {
      "bufferView": 2,
      "componentType": 5126,
      "count": 3370,
      "max": [
        0.13725490868091583,
        0.12941177189350128,
        0.12549020349979401,
        1
      ],
      "min": [
        0.043137256056070328,
        0.035294119268655777,
        0.078431375324726105,
        1
      ],
      "type": "VEC4"
    },
    {
      "bufferView": 0,
      "componentType": 5125,
      "count": 13926,
      "max": [
        3369
      ],
      "min": [
        0
      ],
      "type": "SCALAR"
    },
    {
      "bufferView": 1,
      "byteOffset": 80880,
      "componentType": 5126,
      "count": 4484,
      "max": [
        4.010772705078125,
        -3.6788733005523682,
        14.596804618835449
      ],
      "min": [
        -4.0107736587524414,
        -6.225705623626709,
        12.050771713256836
      ],
      "type": "VEC3"
    },
    {
      "bufferView": 1,
      "byteOffset": 134688,
      "componentType": 5126,
      "count": 4484,
      "max": [
        0.9999040961265564,
        0.99956512451171875,
        0.99938523769378662
      ],
      "min": [
        -0.99990397691726685,
        -0.99949944019317627,
        -0.99882179498672485
      ],
      "type": "VEC3"
    },
    {
      "bufferView": 2,
      "byteOffset": 53920,
      "componentType": 5126,
      "count": 4484,
      "max": [
        0.92941176891326904,
        0.92941176891326904,
        0.92941176891326904,
        1
      ],
      "min": [
        0.08235294371843338,
        0.08235294371843338,
        0.08235294371843338,
        1
      ],
      "type": "VEC4"
    },
    {
      "bufferView": 0,
      "byteOffset": 55704,
      "componentType": 5125,
      "count": 26880,
      "max": [
        4483
      ],
      "min": [
        0
      ],
      "type": "SCALAR"
    },
    {
      "bufferView": 1,
      "byteOffset": 188496,
      "componentType": 5126,
      "count": 7141,
      "max": [
        17.151962280273438,
        7.0930366516113281,
        -32.020130157470703
      ],
      "min": [
        -17.042295455932617,
        -9.177241325378418,
        -42.671245574951172
      ],
      "type": "VEC3"
    },
    {
      "bufferView": 1,
      "byteOffset": 274188,
      "componentType": 5126,
      "count": 7141,
      "max": [
        0.99997979402542114,
        0.99999547004699707,
        1
      ],
      "min": [
        -0.99999630451202393,
        -0.99999523162841797,
        -1
      ],
      "type": "VEC3"
    },
    {
      "bufferView": 2,
      "byteOffset": 125664,
      "componentType": 5126,
      "count": 7141,
      "max": [
        0.24313725531101227,
        0.22745098173618317,
        0.19607843458652496,
        1
      ],
      "min": [
        0.14509804546833038,
        0.13333334028720856,
        0.10196078568696976,
        1
      ],
      "type": "VEC4"
    },
    {
      "bufferView": 0,
      "byteOffset": 163224,
      "componentType": 5125,
      "count": 38772,
      "max": [
        7140
      ],
      "min": [
        0
      ],
      "type": "SCALAR"
    },
    {
      "bufferView": 1,
      "byteOffset": 359880,
      "componentType": 5126,
      "count": 13420,
      "max": [
        33.975124359130859,
        21.258241653442383,
        -1.2600439786911011
      ],
      "min": [
        -33.975040435791016,
        -9.5053472518920898,
        -98.751487731933594
      ],
      "type": "VEC3"
    },
    {
      "bufferView": 1,
      "byteOffset": 520920,
      "componentType": 5126,
      "count": 13420,
      "max": [
        0.99997186660766602,
        0.99976688623428345,
        0.99943011999130249
      ],
      "min": [
        -0.99999016523361206,
        -0.99994522333145142,
        -0.99953508377075195
      ],
      "type": "VEC3"
    },
    {
      "bufferView": 2,
      "byteOffset": 239920,
      "componentType": 5126,
      "count": 13420,
      "max": [
        0.12156862765550613,
        0.12156862765550613,
        0.12156862765550613,
        1
      ],
      "min": [
        0.10196078568696976,
        0.10196078568696976,
        0.10196078568696976,
        1
      ],
      "type": "VEC4"
    },
    {
      "bufferView": 0,
      "byteOffset": 318312,
      "componentType": 5125,
      "count": 53040,
      "max": [
        13419
      ],
      "min": [
        0
      ],
      "type": "SCALAR"
    },
    {
      "bufferView": 1,
      "byteOffset": 681960,
      "componentType": 5126,
      "count": 19769,
      "max": [
        16.07701301574707,
        1.5847029685974121,
        -1.6079190969467163
      ],
      "min": [
        -16.07813835144043,
        -9.7555160522460938,
        -16.282060623168945
      ],
      "type": "VEC3"
    },
    {
      "bufferView": 1,
      "byteOffset": 919188,
      "componentType": 5126,
      "count": 19769,
      "max": [
        0.99998068809509277,
        0.99995553493499756,
        0.99983727931976318
      ],
      "min": [
        -0.9999813437461853,
        -0.99998599290847778,
        -0.99928319454193115
      ],
      "type": "VEC3"
    },
    {
      "bufferView": 2,
      "byteOffset": 454640,
      "componentType": 5126,
      "count": 19769,
      "max": [
        0.18039216101169586,
        0.18039216101169586,
        0.18039216101169586,
        1
      ],
      "min": [
        0.086274512112140656,
        0.086274512112140656,
        0.086274512112140656,
        1
      ],
      "type": "VEC4"
    },
    {
      "bufferView": 0,
      "byteOffset": 530472,
      "componentType": 5125,
      "count": 56934,
      "max": [
        19768
      ],
      "min": [
        0
      ],
      "type": "SCALAR"
    },
    {
      "bufferView": 1,
      "byteOffset": 1156416,
      "componentType": 5126,
      "count": 17740,
      "max": [
        5.6431732177734375,
        0.30568245053291321,
        15.574949264526367
      ],
      "min": [
        -5.6437034606933594,
        -8.3868865966796875,
        3.8007349967956543
      ],
      "type": "VEC3"
    },
    {
      "bufferView": 1,
      "byteOffset": 1369296,
      "componentType": 5126,
      "count": 17740,
      "max": [
        0.99998635053634644,
        0.73429977893829346,
        0.96724236011505127
      ],
      "min": [
        -0.9999774694442749,
        -0.99999570846557617,
        -0.99996942281723022
      ],
      "type": "VEC3"
    },
    {
      "bufferView": 2,
      "byteOffset": 770944,
      "componentType": 5126,
      "count": 17740,
      "max": [
        0.83529412746429443,
        0.60000002384185791,
        0.51372551918029785,
        1
      ],
      "min": [
        0.054901961237192154,
        0.054901961237192154,
        0.054901961237192154,
        1
      ],
      "type": "VEC4"
    },
    {
      "bufferView": 0,
      "byteOffset": 758208,
      "componentType": 5125,
      "count": 94752,
      "max": [
        17739
      ],
      "min": [
        0
      ],
      "type": "SCALAR"
    },
    {
      "bufferView": 1,
      "byteOffset": 1582176,
      "componentType": 5126,
      "count": 28172,
      "max": [
        51.048698425292969,
        63.913246154785156,
        27.443199157714844
      ],
      "min": [
        -51.047813415527344,
        -8.55230712890625,
        -139.98802185058594
      ],
      "type": "VEC3"
    },
    {
      "bufferView": 1,
      "byteOffset": 1920240,
      "componentType": 5126,
      "count": 28172,
      "max": [
        1,
        0.99998915195465088,
        0.99995815753936768
      ],
      "min": [
        -1,
        -0.99983394145965576,
        -0.99996477365493774
      ],
      "type": "VEC3"
    },
    {
      "bufferView": 2,
      "byteOffset": 1054784,
      "componentType": 5126,
      "count": 28172,
      "max": [
        0.3490196168422699,
        0.3490196168422699,
        0.3490196168422699,
        1
      ],
      "min": [
        0,
        0,
        0,
        1
      ],
      "type": "VEC4"
    },
    {
      "bufferView": 0,
      "byteOffset": 1137216,
      "componentType": 5125,
      "count": 144534,
      "max": [
        28171
      ],
      "min": [
        0
      ],
      "type": "SCALAR"
    },
    {
      "bufferView": 1,
      "byteOffset": 2258304,
      "componentType": 5126,
      "count": 27912,
      "max": [
        34.370388031005859,
        21.771621704101562,
        0.76506727933883667
      ],
      "min": [
        -34.370395660400391,
        -10.286660194396973,
        -100.07314300537109
      ],
      "type": "VEC3"
    },
    {
      "bufferView": 1,
      "byteOffset": 2593248,
      "componentType": 5126,
      "count": 27912,
      "max": [
        0.99999773502349854,
        0.99997788667678833,
        0.99996107816696167
      ],
      "min": [
        -0.99999552965164185,
        -0.99986165761947632,
        -0.99920356273651123
      ],
      "type": "VEC3"
    },
    {
      "bufferView": 2,
      "byteOffset": 1505536,
      "componentType": 5126,
      "count": 27912,
      "max": [
        0.26666668057441711,
        0.26666668057441711,
        0.26666668057441711,
        1
      ],
      "min": [
        0.20000000298023224,
        0.20000000298023224,
        0.20000000298023224,
        1
      ],
      "type": "VEC4"
    },
    {
      "bufferView": 0,
      "byteOffset": 1715352,
      "componentType": 5125,
      "count": 151146,
      "max": [
        27911
      ],
      "min": [
        0
      ],
      "type": "SCALAR"
    },
    {
      "bufferView": 1,
      "byteOffset": 2928192,
      "componentType": 5126,
      "count": 55251,
      "max": [
        42.264461517333984,
        22.412591934204102,
        -23.373912811279297
      ],
      "min": [
        -42.277511596679688,
        -2.5569295883178711,
        -139.54864501953125
      ],
      "type": "VEC3"
    },
    {
      "bufferView": 1,
      "byteOffset": 3591204,
      "componentType": 5126,
      "count": 55251,
      "max": [
        0.99997407197952271,
        0.99997967481613159,
        0.99993777275085449
      ],
      "min": [
        -0.99994105100631714,
        -0.99987882375717163,
        -0.99997633695602417
      ],
      "type": "VEC3"
    },
    {
      "bufferView": 2,
      "byteOffset": 1952128,
      "componentType": 5126,
      "count": 55251,
      "max": [
        1,
        1,
        1,
        1
      ],
      "min": [
        0.050980392843484879,
        0.050980392843484879,
        0.050980392843484879,
        1
      ],
      "type": "VEC4"
    },
    {
      "bufferView": 0,
      "byteOffset": 2319936,
      "componentType": 5125,
      "count": 212844,
      "max": [
        55250
      ],
      "min": [
        0
      ],
      "type": "SCALAR"
    },
    {
      "bufferView": 1,
      "byteOffset": 4254216,
      "componentType": 5126,
      "count": 1929,
      "max": [
        28.728984832763672,
        6.8720283508300781,
        -3.9176363945007324
      ],
      "min": [
        -28.728984832763672,
        -9.1822910308837891,
        -139.59585571289062
      ],
      "type": "VEC3"
    },
    {
      "bufferView": 1,
      "byteOffset": 4277364,
      "componentType": 5126,
      "count": 1929,
      "max": [
        0.99772149324417114,
        0.97454500198364258,
        0.98316138982772827
      ],
      "min": [
        -0.99777662754058838,
        -0.9912305474281311,
        -0.99756228923797607
      ],
      "type": "VEC3"
    },
    {
      "bufferView": 2,
      "byteOffset": 2836144,
      "componentType": 5126,
      "count": 1929,
      "max": [
        0.17254902422428131,
        0.17254902422428131,
        0.17254902422428131,
        1
      ],
      "min": [
        0.13725490868091583,
        0.13725490868091583,
        0.13725490868091583,
        1
      ],
      "type": "VEC4"
    },
    {
      "bufferView": 0,
      "byteOffset": 3171312,
      "componentType": 5125,
      "count": 10416,
      "max": [
        1928
      ],
      "min": [
        0
      ],
      "type": "SCALAR"
    }
  ],
  "asset": {
    "extras": {
      "author": "Kirykanoq (https://sketchfab.com/klim.kirik2015)",
      "license": "CC-BY-4.0 (http://creativecommons.org/licenses/by/4.0/)",
      "source": "https://sketchfab.com/models/3726c3abd45d440893670d3b5bc1d88e",
      "title": "Batman | DC"
    },
    "generator": "Sketchfab-3.37.3",
    "version": "2.0"
  },
  "bufferViews": [
    {
      "buffer": 0,
      "byteLength": 3212976,
      "byteOffset": 0,
      "name": "floatBufferViews",
      "target": 34963
    },
    {
      "buffer": 0,
      "byteLength": 4300512,
      "byteOffset": 3212976,
      "byteStride": 12,
      "name": "floatBufferViews",
      "target": 34962
    },
    {
      "buffer": 0,
      "byteLength": 2867008,
      "byteOffset": 7513488,
      "byteStride": 16,
      "name": "floatBufferViews",
      "target": 34962
    }
  ],
  "buffers": [
    {
      "byteLength": 10380496,
      "uri": "scene.bin"
    }
  ],
  "materials": [
    {
      "doubleSided": true,
      "name": "material_0",
      "pbrMetallicRoughness": {
        "baseColorFactor": [
          1,
          1,
          1,
          1
        ],
        "metallicFactor": 1,
        "roughnessFactor": 0.32799999999999996
      }
    }
  ],
  "meshes": [
    {
      "primitives": [
        {
          "attributes": {
            "COLOR_0": 2,
            "NORMAL": 1,
            "POSITION": 0
          },
          "indices": 3,
          "material": 0,
          "mode": 4
        }
      ]
    },
    {
      "primitives": [
        {
          "attributes": {
            "COLOR_0": 6,
            "NORMAL": 5,
            "POSITION": 4
          },
          "indices": 7,
          "material": 0,
          "mode": 4
        }
      ]
    },
    {
      "primitives": [
        {
          "attributes": {
            "COLOR_0": 10,
            "NORMAL": 9,
            "POSITION": 8
          },
          "indices": 11,
          "material": 0,
          "mode": 4
        }
      ]
    },
    {
      "primitives": [
        {
          "attributes": {
            "COLOR_0": 14,
            "NORMAL": 13,
            "POSITION": 12
          },
          "indices": 15,
          "material": 0,
          "mode": 4
        }
      ]
    },
    {
      "primitives": [
        {
          "attributes": {
            "COLOR_0": 18,
            "NORMAL": 17,
            "POSITION": 16
          },
          "indices": 19,
          "material": 0,
          "mode": 4
        }
      ]
    },
    {
      "primitives": [
        {
          "attributes": {
            "COLOR_0": 22,
            "NORMAL": 21,
            "POSITION": 20
          },
          "indices": 23,
          "material": 0,
          "mode": 4
        }
      ]
    },
    {
      "primitives": [
        {
          "attributes": {
            "COLOR_0": 26,
            "NORMAL": 25,
            "POSITION": 24
          },
          "indices": 27,
          "material": 0,
          "mode": 4
        }
      ]
    },
    {
      "primitives": [
        {
          "attributes": {
            "COLOR_0": 30,
            "NORMAL": 29,
            "POSITION": 28
          },
          "indices": 31,
          "material": 0,
          "mode": 4
        }
      ]
    },
    {
      "primitives": [
        {
          "attributes": {
            "COLOR_0": 34,
            "NORMAL": 33,
            "POSITION": 32
          },
          "indices": 35,
          "material": 0,
          "mode": 4
        }
      ]
    },
    {
      "primitives": [
        {
          "attributes": {
            "COLOR_0": 38,
            "NORMAL": 37,
            "POSITION": 36
          },
          "indices": 39,
          "material": 0,
          "mode": 4
        }
      ]
    }
  ],
  "nodes": [
    {
      "children": [
        1
      ],
      "name": "RootNode (gltf orientation matrix)",
      "rotation": [
        -0.70710678118654746,
        -0,
        -0,
        0.70710678118654757
      ]
    },
    {
      "children": [
        2
      ],
      "name": "RootNode (model correction matrix)"
    },
    {
      "children": [
        3,
        4,
        5,
        6,
        7,
        8,
        9,
        10,
        11,
        12
      ],
      "name": "Bat stand SkFb 01.OBJ.cleaner.materialmerger.gles"
    },
    {
      "mesh": 0,
      "name": ""
    },
    {
      "mesh": 1,
      "name": ""
    },
    {
      "mesh": 2,
      "name": ""
    },
    {
      "mesh": 3,
      "name": ""
    },
    {
      "mesh": 4,
      "name": ""
    },
    {
      "mesh": 5,
      "name": ""
    },
    {
      "mesh": 6,
      "name": ""
    },
    {
      "mesh": 7,
      "name": ""
    },
    {
      "mesh": 8,
      "name": ""
    },
    {
      "mesh": 9,
      "name": ""
    }
  ],
  "scene": 0,
  "scenes": [
    {
      "name": "OSG_Scene",
      "nodes": [
        0
      ]
    }
  ]
}

